<?xml version="1.0" encoding="utf-8"?>
<!-- Generator: Adobe Illustrator 28.0.0, SVG Export Plug-In . SVG Version: 6.00 Build 0)  -->
<svg version="1.1" xmlns="http://www.w3.org/2000/svg" xmlns:xlink="http://www.w3.org/1999/xlink" x="0px" y="0px"
	 viewBox="0 0 792 612" style="enable-background:new 0 0 792 612;" xml:space="preserve">
<style type="text/css">
	.st0{fill:none;stroke:#3A6CB5;stroke-miterlimit:10;}
</style>
<g id="Background">
</g>
<g id="Line_wave">
	<g>
		<g>
			<g>
				<path class="st0" d="M-2.56,425.98c66.04-6.05,129.52-33.27,193.08-50.64c23.87-6.53,77.77-27.78,92.7,3.59
					c8.41,17.66,1.29,39.21,24.8,45.97c26.45,7.61,63.83,1.18,91.21,1.13c28.47-0.05,58.83,2.92,87.06-0.65
					c37.76-4.77,68.48-32.89,99.85-52.12c20.58-12.62,59.61-34.65,83.44-17.09c6.93,5.11,9.76,12.97,17.49,17.64
					c22.5,13.57,59.92,9.42,83.9,9.36"/>
			</g>
			<g>
				<path class="st0" d="M-2.56,419.84c56.22-18.6,109.82-44.54,165.58-64.48c34.27-12.26,83.05-33.26,103.74,10.91
					c9.11,19.44,7.4,39.11,29.84,49.18c28.63,12.85,69.89,7.46,100.65,6.25c29.17-1.15,60.6,2.74,89.25-0.91
					c39.28-5,69.73-39.66,100.03-62.15c26.67-19.79,70.06-46.63,101.82-21.59c7.35,5.79,12.44,13.65,20.43,18.86
					c24.26,15.8,60.4,14.33,87.64,15.25"/>
			</g>
			<g>
				<path class="st0" d="M-2.56,413.43c48.07-30.54,100.97-56.03,153.77-77.15c19.42-7.77,44.54-21.39,64.31-13.22
					c14.93,6.17,30.12,19.91,38.23,33.73c12.68,21.61,13.83,38.09,38.87,50.21c30.6,14.81,69.79,12.84,102.96,10.91
					c27.96-1.63,55.42,2.11,82.94,1.36c42.07-1.13,73.29-44.59,102.92-69.29c31.17-25.97,73.25-49.23,112.08-25.29
					c10.88,6.71,20.05,15.72,31.46,21.67c27.15,14.15,59.79,14.67,89.56,16.12"/>
			</g>
			<g>
				<path class="st0" d="M-2.56,406.78c33.7-38.94,94.44-64.72,141.11-83.93c18.14-7.46,40.36-20.17,59.53-10.88
					c16.42,7.96,33.25,23.09,44.57,37.58c15.51,19.86,21.71,34.67,45.62,46.98c32.58,16.77,70.21,20.23,106.22,17.73
					c12.21-0.85,24.48-2.35,36.74-1.79c14.18,0.65,27.62,6.27,41.59,6.51c42.66,0.73,72.07-49.79,100.21-74.8
					c34.05-30.27,75.31-44.1,118.05-24.43c14.99,6.9,28.56,16.28,44.02,22.31c29.06,11.33,60.36,12.98,91.16,14.36"/>
			</g>
			<g>
				<path class="st0" d="M-2.56,399.91c9.8-20.19,33.72-34.71,51.92-46.32c23.14-14.76,47.63-27.65,72.91-38.32
					c11.17-4.71,22.72-9.67,34.64-12.24c13.22-2.85,17.28-1.78,29.22,4.7c17.91,9.71,35.13,25.31,49.7,39.55
					c42.26,41.31,97.81,67.55,158.45,63.05c10.35-0.77,20.75-2.38,31.15-1.51c14.7,1.23,27.5,10.52,41.99,10.93
					c40.28,1.12,64.99-51.01,90.24-74.87c37.73-35.65,80.75-40.59,128.43-23.84c17.86,6.27,34.94,14.35,53.17,19.62
					c30.36,8.78,61.62,10.62,93.04,11.54"/>
			</g>
			<g>
				<path class="st0" d="M-2.56,392.85C0.51,372.3,26.17,356,41.47,345.59c23.44-15.95,49.4-29.58,76.06-39.35
					c18.66-6.84,37.75-14.43,54.89-2.28c20.31,14.39,39.79,29.95,60.18,44.22c16.99,11.89,36.21,18.51,54.95,27.2
					c34.97,16.22,68.15,33.72,107.7,30.36c8.59-0.73,17.15-2.51,25.79-1.29c13.71,1.94,23.51,11.76,36.72,14.46
					c37.7,7.7,59.41-46.69,80.03-69.13c38.29-41.69,88.53-39.12,139.24-25.52c52.84,14.17,101.22,24.42,156.5,24.82"/>
			</g>
			<g>
				<path class="st0" d="M-2.56,385.6c-1.31-20.03,23.31-37.48,37.17-47.31c21.82-15.47,46.85-28.15,72.34-36.41
					c26.85-8.69,40.11-9.96,63.11,6.73c19.5,14.14,39.33,32.42,61.88,41.61c19.28,7.86,40.06,7.14,60.01,15.79
					c34.45,14.92,66.28,38.42,105.56,33.98c6.88-0.78,13.81-3,20.78-1.72c12.76,2.35,20.08,13.98,31.84,18.3
					c36.9,13.56,54.92-46.71,73.54-67.66c37.62-42.31,94.08-31.16,143.59-21.19c54.91,11.06,107.14,19.49,163.49,18.57"/>
			</g>
			<g>
				<path class="st0" d="M-2.56,378.2c-10.02-40.43,72.85-72.68,100.47-80.25c24.79-6.79,40.69-6.34,61.51,8.83
					c20.48,14.92,44.2,38.61,69.93,44.46c9.72,2.21,15.28-0.91,24.38-2.67c14.79-2.86,29.07,2.08,42.66,7.71
					c33.53,13.88,66.42,43.59,105.18,36.48c6.37-1.17,11.61-4.02,18.25-2.44c12.29,2.93,18.49,18.03,30.32,22.61
					c31.1,12.04,44.11-43.91,58.02-62.07c34.89-45.56,94.93-30.22,144.01-22.61c57.85,8.97,113.85,16.97,172.63,14.84"/>
			</g>
			<g>
				<path class="st0" d="M-2.56,370.67c-16.16-40.03,66.51-71.31,92.68-77.18c23.37-5.24,40.33-3.75,59.53,10.33
					c21.43,15.72,49.47,44.96,77.78,48.72c11.73,1.56,16.36-4.17,25.95-8.77c13.67-6.55,26.66-4.43,40.7,0.51
					c34.19,12.05,74.05,52.49,113.34,39.27c5.29-1.78,9.12-5.88,15-4.69c10.48,2.11,18.48,18.4,27.01,23.74
					c30.4,19.01,39.03-42.62,52.41-59.72c34.27-43.78,98.18-23.71,145.53-16.87c56.47,8.15,111.91,15.35,169.13,12.74"/>
			</g>
			<g>
				<path class="st0" d="M-2.56,363.02c-21.5-40.62,61.27-71.29,87.48-75.74c24.74-4.2,41.28,0.18,60.64,15.31
					c20.36,15.91,53.29,50.26,82.27,50.81c12.97,0.25,17.36-8.08,26.47-15.14c12.85-9.97,26.77-8.63,41.64-3.6
					c32.77,11.09,82.27,58.95,119.6,37.37c4.65-2.69,7.9-8.72,13.66-8.64c9.42,0.13,20.41,19.79,26.47,24.49
					c12.51,9.71,18.38,8.1,24.81-6.24c7.63-17.02,9.2-35.34,20.56-50.9c33.04-45.25,99.42-21.11,145.78-13.36
					c53.08,8.87,105.86,16.91,159.83,15.11"/>
			</g>
			<g>
				<path class="st0" d="M-2.56,355.29c-14.82-45,45.16-70.99,81.27-76.25c31.38-4.57,48.03,5.82,71.54,25.65
					c18.96,15.99,51.88,50.57,79.63,47.02c13.76-1.76,16.35-12.17,25.5-20.66c13.31-12.35,26.89-10.17,43.17-4.42
					c33.02,11.66,91.46,62.55,127.55,31.16c3.92-3.41,8.58-13.86,14.37-14.66c11.39-1.57,20.64,16.93,27.58,23.07
					c11.05,9.77,17.57,12.69,23.49-2.15c6.79-17.01,6.85-35.33,16.66-51.58c31.17-51.65,102.03-22.34,147.87-11.35
					c45.98,11.02,92.59,21.18,140.01,22.46"/>
			</g>
			<g>
				<path class="st0" d="M-3.61,346.54c-12.63-45.16,46.8-73.74,83.26-81.05c26.82-5.38,40.91,0.92,61.72,17.5
					c21.3,16.97,52.74,48.77,82.61,49.34c13.67,0.26,20.13-7.63,31.33-13.27c16.39-8.25,32.81-4.32,49.18,2.42
					c34.3,14.11,88.45,53.13,124.73,22.14c5.88-5.02,10.64-14.94,18.58-16.92c13.72-3.42,24.24,14.13,32.76,21.13
					c25.59,21.03,28.36-29.53,39.43-45.05c31.01-43.48,92.8-18.02,134.93-8.29c44.17,10.2,88.9,19.6,134.35,20.72"/>
			</g>
			<g>
				<path class="st0" d="M-6.31,336.23c-17.6-41.45,62.37-74.93,90.41-81.46c29.44-6.86,40.01-1.18,63.76,16.8
					c22.42,16.98,49.67,41.57,78.84,45.09c11.63,1.4,21.1-2.87,32.09-5.61c18.22-4.53,33.28-0.84,50.73,5.85
					c36.49,13.99,85.93,46.77,122.23,15.06c21.29-18.6,26.16-26.37,51.68-4.3c29.2,25.25,30.66-15.99,47.87-33.98
					c33.32-34.82,91.76-9.8,131.81-1.23c41.55,8.89,83.46,16.91,126.04,18.1"/>
			</g>
			<g>
				<path class="st0" d="M-10.08,324.86c-5.18-41.52,67.51-68.85,97.63-77c25.8-6.98,42.74-7.37,64.4,9.04
					c22.79,17.28,47.45,37.09,75.3,45.51c14.28,4.32,26.48,2.63,41.02,2.12c19.31-0.67,36.61,3.64,54.41,11.11
					c33.86,14.21,79.84,37.89,111.16,6.82c20.89-20.73,27.29-28.17,54.02-7.3c26.37,20.6,33.49-11.27,52.05-25.85
					c34.96-27.45,86.21-6.15,125.14,1.58c42.55,8.46,85.34,16.13,128.78,17.67"/>
			</g>
			<g>
				<path class="st0" d="M-14.36,312.91c6.57-40.71,82.01-64.36,115.55-72c22.76-5.18,40.6-7.19,60.61,5.79
					c24.28,15.75,46.99,33.87,74.2,44.47c30.47,11.87,63.66,9.35,94.54,21.51c32.6,12.84,76.91,34.45,104.79,1.93
					c17-19.83,22.99-30.67,49.52-13.83c30.42,19.31,34.98,0.14,61.96-14.42c37.01-19.96,82.02-2.62,120.57,4.38
					c44.37,8.05,88.88,15.44,134,17.42"/>
			</g>
			<g>
				<path class="st0" d="M-18.56,300.86c9.88-17.05,31.06-26.75,48.04-35.15c24.54-12.15,50.99-21.75,77.68-28.04
					c27.44-6.47,49.4-9.87,73.85,5.5c22.56,14.18,44.36,29.38,68.98,39.92c29.51,12.63,61.72,17.18,91.82,28.36
					c30.04,11.16,71.96,29.7,94.45-3.47c14.37-21.19,20.62-32.25,47.23-16.25c26.83,16.13,41.14,3.22,67.17-6.36
					c40.86-15.03,85.82,0.56,127.13,7.19c43.87,7.05,87.77,13.44,132.18,15.7"/>
			</g>
			<g>
				<path class="st0" d="M-22.11,289.21c37.4-30.63,95.55-45.38,141.86-55c26.97-5.6,52.26-10.21,77,3.55
					c21.89,12.18,42.64,26.01,65.16,37.13c29.87,14.75,61.59,24.66,92.84,35.97c27.39,9.91,65.09,23.76,81.67-8.83
					c11.04-21.72,16.79-32.5,43.08-19.31c27.35,13.73,48.05,6.25,76.31,0.84c42.34-8.11,85.03,3.81,127.03,9.7
					c44.79,6.28,89.6,12.02,134.79,14.47"/>
			</g>
			<g>
				<path class="st0" d="M-24.43,278.44C25.2,257,79.12,241.28,132.21,231.41c26.29-4.88,54.66-10.53,79.53,1.47
					c20.93,10.1,40.93,22.79,61.27,34.03c30.29,16.73,61,31.69,93.76,43c26.27,9.07,57.11,17.33,69.07-13.59
					c8.9-22.99,12.2-30.39,39.13-21.77c29.88,9.56,54.36,8.72,85.41,7.04c42.48-2.3,84.25,6.37,126.31,11.3
					c45.18,5.29,90.36,10.18,135.8,12.58"/>
			</g>
			<g>
				<path class="st0" d="M-24.96,269.04c57.04-13.21,113.09-30.73,170.9-40.58c23.95-4.08,50.23-9.28,73.79-2.24
					c20.63,6.17,40.88,19.49,59.32,30.54c29.36,17.59,139.8,97.31,155.41,33.62c5.74-23.41,11.33-29.97,37.5-23.31
					c31.83,8.1,62.9,10.25,95.6,11.95c85.17,4.44,169.76,17.48,255.12,21.39"/>
			</g>
			<g>
				<path class="st0" d="M-23.11,261.5c60.14-7.21,118.55-25.26,178.17-35.71c23.6-4.13,49.63-9.8,73.45-5.03
					c19.72,3.95,38.71,15.55,55.54,26.22c25.8,16.36,137.69,105.35,148.25,36.79c3.61-23.41,11.59-28.45,36.52-24.65
					c34.39,5.24,68.54,11.56,103.06,16.1c81,10.64,162.8,13.82,244.42,16.25"/>
			</g>
			<g>
				<path class="st0" d="M-18.31,256.31c62.29-3.53,123.16-22.75,184.14-34.75c20.52-4.04,42.97-9.57,64.06-8.42
					c19.85,1.08,37.57,11.72,53.79,22.27c24.6,15.99,135.66,113.08,145.58,40.61c2.97-21.72,13.37-26.01,35.41-25.63
					c37.44,0.65,75.03,11.9,111.54,19.05c73.41,14.38,150.72,8.1,225.21,8.1"/>
			</g>
			<g>
				<path class="st0" d="M-10.18,250.97c56.8-4.27,112.16-20.93,167.75-32.5c22.15-4.61,48.13-12.05,71.19-10.02
					c20.01,1.76,38.51,13.12,55.06,23.61c27.86,17.66,127,103.85,144.64,36.66c5.48-20.9,16.2-25.55,38.38-24.82
					c35.72,1.19,70.73,11.42,105.53,18.69c73.76,15.42,149.6,7.64,224.43,9.68"/>
			</g>
			<g>
				<path class="st0" d="M-4.52,246.21c53.95-4.04,106.44-19.34,159.36-29.84c45.15-8.96,77.04-11.79,117.99,10.86
					c34.57,19.12,124.62,95.23,153.43,34.41c22.99-48.52,109.9-11.09,148.39-2.58c72.57,16.05,146,4.61,219.5,7.22"/>
			</g>
			<g>
				<path class="st0" d="M-0.95,241.92c86.46-5.04,178.97-54.23,262.42-15.62c43.82,20.27,119.62,79.05,161.51,28.51
					c35.01-42.24,106.71-9.06,150.39,1.65c73.28,17.97,145.61,1.23,219.74,3.31"/>
			</g>
			<g>
				<path class="st0" d="M0.91,237.96c84.78-2.52,167.39-41.18,250.5-10.21c53.1,19.79,114.58,58.15,167.58,20.47
					c45.88-32.61,100.88-7.86,149.86,5.92c75.88,21.34,147.77-1.95,224.49-1.24"/>
			</g>
			<g>
				<path class="st0" d="M1.45,234.2c80.08,0.58,156.7-27.66,236.2-6.06c59.48,16.16,117.17,40.48,177.02,13.75
					c52.94-23.64,100.47-5.23,152.76,11.42c77.31,24.62,148.98-6.3,227.08-7.44"/>
			</g>
			<g>
				<path class="st0" d="M1.03,230.51c73.85,3.33,146.69-15.45,220.51-2.78c64.78,11.12,123.72,25.21,188.79,8.06
					c23.44-6.18,46.88-10.9,71.33-8.69c30.62,2.76,58.41,16.53,87.03,26.58c77.07,27.07,149.85-11.88,227.58-14.88"/>
			</g>
			<g>
				<path class="st0" d="M0.04,226.77c70.23,5.06,140.93-5.97,211.24,0.56c66.06,6.14,128.98,12.62,195.07,2.62
					c25.63-3.88,52.3-7.87,78.26-5.14c29.51,3.11,55.42,17.44,82.6,28.15c77.66,30.59,152.71-16.4,231.05-21.06"/>
			</g>
			<g>
				<path class="st0" d="M-1.14,222.85c68.55,5.27,137.59,0.26,206.18,2.52c66.29,2.18,131.79,3.92,198.03-1.01
					c27.5-2.04,56.53-5.41,84.02-2.21c28.65,3.33,52.9,18.18,78.86,29.47c77.79,33.84,155.66-20.53,234.21-26.27"/>
			</g>
			<g>
				<path class="st0" d="M-2.13,218.63c133.9,7.06,269.02,3.91,402.99,0.41c28.82-0.75,59.37-3.68,88.03-0.25
					c28.12,3.37,51.06,18.67,76.13,30.44c77.76,36.5,157.97-23.91,236.58-29.91"/>
			</g>
			<g>
				<path class="st0" d="M-2.56,213.96c134.21,0.14,268.41,0.03,402.62,0c29.38-0.01,60.52-2.87,89.7,0.44
					c27.98,3.17,50.14,18.83,74.78,30.92c78.01,38.28,158.83-26.19,237.72-31.36"/>
			</g>
			<g>
				<path class="st0" d="M-2.56,209.2c72.58,1.94,145.24-2.14,217.83-0.42c61.66,1.46,123.15,1.59,184.84,0.8
					c29.13-0.37,59.27-2.72,88.28,0.12c27.85,2.73,50.69,17.68,75.35,29.45c80.11,38.24,157.82-24.43,238.65-29.95"/>
			</g>
			<g>
				<path class="st0" d="M-2.56,204.82c72.7,2.33,145.22-8.39,217.96-2.71c62.04,4.85,122.5,6.27,184.75,4.14
					c29.13-0.99,59.25-3.72,88.3-0.93c28.45,2.73,52.67,17.26,78.31,28.53c81.24,35.71,154.42-23.48,235.76-29.03"/>
			</g>
			<g>
				<path class="st0" d="M-2.56,200.84c72.87,1.56,143.89-17.73,216.88-6.43c30.69,4.75,61.11,12.18,92.3,12.76
					c31.18,0.58,62.46-1.41,93.57-3.33c29.16-1.8,59.27-5.09,88.44-2.52c29.43,2.6,55.4,16.57,82.43,27.26
					c35.48,14.02,66.08,15.61,103.12,5.58c43.04-11.65,83.49-30.36,128.51-33.31"/>
			</g>
			<g>
				<path class="st0" d="M-2.56,197.27c73.62-0.04,140.97-29.1,214.91-11.16c31.15,7.56,61.9,18.94,94.14,20.85
					c31.11,1.84,62.78-1.9,93.72-4.79c29.22-2.73,59.29-6.72,88.65-4.46c30.7,2.36,58.63,15.71,87.32,25.74
					c35.79,12.52,67.16,15.2,104.11,5.28c41.12-11.04,79.51-28.84,122.55-31.44"/>
			</g>
			<g>
				<path class="st0" d="M-2.56,194.14c37.12-1.09,70.73-13.03,106.48-21.44c36.95-8.69,69.88-7.03,105.89,4.98
					c31.68,10.56,62.9,26.2,96.48,29.73c30.94,3.25,63.29-2.41,93.96-6.31c29.28-3.72,59.31-8.5,88.89-6.6
					c32.1,2.06,62.2,14.63,92.6,24.1c35.84,11.17,68.52,14.71,105.18,4.95c39.04-10.39,75.2-27.2,116.09-29.42"/>
			</g>
			<g>
				<path class="st0" d="M-2.56,191.47c37.05-2.24,68.73-17.41,103.53-28.46c38.13-12.11,69.3-8.86,106.03,6.57
					c32.24,13.54,63.99,33.49,99.06,38.74c30.74,4.61,63.88-2.93,94.22-7.82c29.34-4.72,59.31-10.29,89.14-8.73
					c33.61,1.76,65.7,13.65,97.89,22.46c35.9,9.82,69.79,14.23,106.25,4.63c36.96-9.73,70.87-25.55,109.63-27.39"/>
			</g>
			<g>
				<path class="st0" d="M-2.56,189.29c37.13-3.29,66.79-21.5,100.62-35.05c38.97-15.61,69.03-10.43,106.17,8.03
					c32.79,16.29,65.02,40.27,101.6,47.21c30.53,5.79,64.47-3.46,94.48-9.24c29.35-5.65,59.31-12.09,89.35-10.69
					c35.06,1.63,68.91,12.74,102.81,20.94c35.98,8.71,70.9,13.67,107.26,4.32c35.09-9.03,66.83-23.98,103.64-25.51"/>
			</g>
			<g>
				<path class="st0" d="M-2.56,187.6c37.36-4.03,65.14-24.93,98.09-40.63c39.33-18.75,69.11-11.61,106.3,9.21
					c33.24,18.6,65.9,46.2,103.84,54.45c30.43,6.62,64.94-3.95,94.69-10.5c29.37-6.47,59.22-13.53,89.5-12.3
					c36.3,1.47,71.67,11.98,106.98,19.65c36.02,7.82,71.86,13.26,108.13,4.06c33.49-8.5,63.46-22.6,98.61-23.93"/>
			</g>
			<g>
				<path class="st0" d="M-2.56,186.44c37.76-4.22,63.96-27.32,96.25-44.63c39.24-21.04,69.52-12.35,106.41,9.98
					c33.5,20.28,66.48,50.88,105.51,59.81c30.47,6.97,65.21-4.39,94.81-11.54c29.38-7.1,59.07-14.57,89.53-13.38
					c37.2,1.46,73.67,11.46,110.02,18.71c36.09,7.2,72.53,13,108.8,3.86c32.35-8.15,61.06-21.51,95.02-22.8"/>
			</g>
			<g>
				<path class="st0" d="M-2.56,185.83c38.34-3.63,63.41-28.26,95.44-46.48c38.75-22.04,70.22-12.68,106.48,10.19
					c33.48,21.12,66.65,53.91,106.33,62.6c30.65,6.71,65.22-4.75,94.8-12.29c29.37-7.48,58.86-15.1,89.43-13.75
					c37.65,1.65,74.66,11.25,111.55,18.25c36.25,6.87,72.81,12.9,109.19,3.75c31.83-8.01,59.95-20.85,93.37-22.27"/>
			</g>
		</g>
	</g>
</g>
</svg>
