<?xml version="1.0" encoding="UTF-8"?>
<svg id="INFRASTRUCTURE" xmlns="http://www.w3.org/2000/svg" viewBox="0 0 152.78 152">
  <defs>
    <style>
      .cls-1 {
        stroke-width: 0px;
      }

      .cls-1, .cls-2 {
        fill: #fff;
      }

      .cls-2, .cls-3 {
        stroke: #eeaaa9;
        stroke-miterlimit: 10;
      }

      .cls-3 {
        fill: #d79264;
      }
    </style>
  </defs>
  <circle class="cls-2" cx="75.5" cy="76.13" r="75"/>
  <circle class="cls-3" cx="75.5" cy="76.13" r="63.79"/>
  <path class="cls-1" d="m67.72,52.79h15.56v7.78h-15.56v-7.78Zm-1.95-7.78c-3.22,0-5.84,2.61-5.84,5.84v11.67c0,3.22,2.61,5.84,5.84,5.84h5.84v3.89h-31.12c-2.15,0-3.89,1.74-3.89,3.89s1.74,3.89,3.89,3.89h11.67v3.89h-5.84c-3.22,0-5.84,2.61-5.84,5.84v11.67c0,3.22,2.61,5.84,5.84,5.84h19.45c3.22,0,5.84-2.61,5.84-5.84v-11.67c0-3.22-2.61-5.84-5.84-5.84h-5.84v-3.89h31.12v3.89h-5.84c-3.22,0-5.84,2.61-5.84,5.84v11.67c0,3.22,2.61,5.84,5.84,5.84h19.45c3.22,0,5.84-2.61,5.84-5.84v-11.67c0-3.22-2.61-5.84-5.84-5.84h-5.84v-3.89h11.67c2.15,0,3.89-1.74,3.89-3.89s-1.74-3.89-3.89-3.89h-31.12v-3.89h5.84c3.22,0,5.84-2.61,5.84-5.84v-11.67c0-3.22-2.61-5.84-5.84-5.84h-19.45Zm-17.51,54.47v-7.78h15.56v7.78h-15.56Zm38.91-7.78h15.56v7.78h-15.56v-7.78Z"/>
</svg>