<?xml version="1.0" encoding="UTF-8"?>
<svg id="DATA_ANALYTICS" data-name="DATA ANALYTICS" xmlns="http://www.w3.org/2000/svg" viewBox="0 0 152.16 151.91">
  <defs>
    <style>
      .cls-1, .cls-2 {
        fill: #fff;
      }

      .cls-1, .cls-3 {
        stroke: #a19ccc;
        stroke-miterlimit: 10;
      }

      .cls-2 {
        stroke-width: 0px;
      }

      .cls-3 {
        fill: #a19ccc;
      }
    </style>
  </defs>
  <circle class="cls-1" cx="75.5" cy="76.3" r="75"/>
  <circle class="cls-3" cx="75.5" cy="76.3" r="63.79"/>
  <path class="cls-2" d="m65.73,49.44c0-4.04,3.28-7.33,7.33-7.33h4.88c4.04,0,7.33,3.28,7.33,7.33v53.73c0,4.04-3.28,7.33-7.33,7.33h-4.88c-4.04,0-7.33-3.28-7.33-7.33v-53.73Zm-24.42,29.3c0-4.04,3.28-7.33,7.33-7.33h4.88c4.04,0,7.33,3.28,7.33,7.33v24.42c0,4.04-3.28,7.33-7.33,7.33h-4.88c-4.04,0-7.33-3.28-7.33-7.33v-24.42Zm56.17-26.86h4.88c4.04,0,7.33,3.28,7.33,7.33v43.96c0,4.04-3.28,7.33-7.33,7.33h-4.88c-4.04,0-7.33-3.28-7.33-7.33v-43.96c0-4.04,3.28-7.33,7.33-7.33Z"/>
</svg>