<?xml version="1.0" encoding="UTF-8"?>
<svg id="CONSULTING" xmlns="http://www.w3.org/2000/svg" viewBox="0 0 152.3 152">
  <defs>
    <style>
      .cls-1 {
        stroke-width: 0px;
      }

      .cls-1, .cls-2 {
        fill: #fff;
      }

      .cls-2, .cls-3 {
        stroke: #efc08a;
        stroke-miterlimit: 10;
      }

      .cls-3 {
        fill: #efc08a;
      }
    </style>
  </defs>
  <circle class="cls-2" cx="75.5" cy="76.5" r="75"/>
  <circle class="cls-3" cx="75.5" cy="76.5" r="63.79"/>
  <path class="cls-1" d="m75.49,35.23c2.85,0,5.16,2.3,5.16,5.16v5.16h5.16c2.08,0,3.96,1.26,4.77,3.19s.35,4.14-1.11,5.62l-10.31,10.31c-2.01,2.01-5.29,2.01-7.3,0l-10.31-10.31c-1.48-1.48-1.92-3.69-1.11-5.62s2.68-3.19,4.77-3.19h5.16v-5.16c0-2.85,2.3-5.16,5.16-5.16h-.02Zm-13.96,63.4l10.31-10.31c2.01-2.01,5.29-2.01,7.3,0l10.31,10.31c1.48,1.48,1.92,3.69,1.11,5.62s-2.68,3.19-4.77,3.19h-5.16v5.16c0,2.85-2.3,5.16-5.16,5.16s-5.16-2.3-5.16-5.16v-5.17h-5.16c-2.08,0-3.96-1.26-4.77-3.19s-.35-4.14,1.11-5.62l.02.02Zm-22.14-27.3h5.16v-5.16c0-2.08,1.26-3.96,3.19-4.77s4.14-.35,5.62,1.11l10.31,10.31c2.01,2.01,2.01,5.29,0,7.3l-10.31,10.31c-1.48,1.48-3.69,1.92-5.62,1.11s-3.19-2.68-3.19-4.77v-5.14h-5.16c-2.85,0-5.16-2.3-5.16-5.16s2.3-5.16,5.16-5.16Zm47.93,8.8c-2.01-2.01-2.01-5.29,0-7.3l10.31-10.31c1.48-1.48,3.69-1.92,5.62-1.11s3.19,2.68,3.19,4.77v5.16h5.16c2.85,0,5.16,2.3,5.16,5.16s-2.3,5.16-5.16,5.16h-5.17v5.16c0,2.08-1.26,3.96-3.19,4.77s-4.14.35-5.62-1.11l-10.31-10.31.02-.02Zm-11.83-8.8c2.85,0,5.16,2.31,5.16,5.16s-2.31,5.16-5.16,5.16-5.16-2.31-5.16-5.16,2.31-5.16,5.16-5.16Z"/>
</svg>