<?xml version="1.0" encoding="UTF-8"?>
<svg id="STRATEGIC" xmlns="http://www.w3.org/2000/svg" viewBox="0 0 152.16 151.91">
  <defs>
    <style>
      .cls-1 {
        stroke-width: 0px;
      }

      .cls-1, .cls-2 {
        fill: #fff;
      }

      .cls-2, .cls-3 {
        stroke: #a1d5b0;
        stroke-miterlimit: 10;
      }

      .cls-3 {
        fill: #a1d5b0;
      }
    </style>
  </defs>
  <circle class="cls-2" cx="76.66" cy="75.5" r="75"/>
  <circle class="cls-3" cx="76.66" cy="75.5" r="63.79"/>
  <path class="cls-1" d="m71,52.74l-6.05,6.05c-1.81.5-3.49,1.41-4.91,2.66l-3.15,2.81c-1.21,1.08-2.78,1.67-4.4,1.67h-2.34v15.15c2.41.07,4.71,1.05,6.43,2.77l4.21,4.21.83.83h0l3.2,3.2c.73.73,1.94.73,2.68,0,.2-.2.36-.44.44-.69.33-.91,1.1-1.6,2.05-1.81s1.94.07,2.63.77l1.28,1.25c1.37,1.37,3.6,1.37,4.96,0,.64-.64.98-1.46,1.02-2.3.05-1.04.66-1.97,1.61-2.41s2.05-.36,2.89.25c1.11.79,2.66.69,3.66-.31,1.11-1.11,1.11-2.91,0-4.01l-8.97-8.97-4.24,3.91c-3.23,2.98-8.19,3.03-11.48.11-3.75-3.34-3.84-9.16-.19-12.61l8.3-7.84c3.24-3.05,7.53-4.76,11.99-4.76s8.41,1.57,11.59,4.4l3.56,3.17h14.08c1.04,0,1.89.85,1.89,1.89v24.62c0,2.1-1.69,3.79-3.79,3.79h-3.79c-1.4,0-2.63-.76-3.28-1.89h-10.05c-.4.79-.94,1.55-1.6,2.21-2.02,2.02-4.83,2.82-7.46,2.38-.43.86-1.01,1.67-1.73,2.39-3.23,3.23-8.29,3.55-11.89.96-2.97,2.46-7.4,2.31-10.18-.49l-3.18-3.2-.83-.83-4.21-4.21c-.65-.65-1.5-1.03-2.41-1.1,0,2.08-1.7,3.78-3.79,3.78h-3.79c-2.1,0-3.79-1.69-3.79-3.79v-24.62c0-1.04.85-1.89,1.89-1.89h11.81c.24,0,.46-.08.63-.24l3.14-2.79c3.3-2.92,7.55-4.55,11.97-4.55h1.22c.52,0,1.05.02,1.56.07Zm32.18,30.23v-17.05h-5.68c-.7,0-1.37-.26-1.88-.72l-4.37-3.88c-2.15-1.92-4.94-2.97-7.83-2.97s-5.9,1.15-8.09,3.21l-8.3,7.84c-1.22,1.16-1.2,3.11.06,4.23,1.1.98,2.77.96,3.85-.04l8.51-7.86c1.15-1.07,2.95-.99,4.01.17s.99,2.95-.17,4.01l-.09.09,8.81,8.81c1.18,1.18,1.95,2.64,2.3,4.16h8.87Zm-56.82,1.89c0-1.05-.85-1.89-1.89-1.89s-1.89.85-1.89,1.89.85,1.89,1.89,1.89,1.89-.85,1.89-1.89Zm62.51,1.89c1.05,0,1.89-.85,1.89-1.89s-.85-1.89-1.89-1.89-1.89.85-1.89,1.89.85,1.89,1.89,1.89Z"/>
</svg>