<?xml version="1.0" encoding="UTF-8"?>
<svg id="CLOUD" xmlns="http://www.w3.org/2000/svg" viewBox="0 0 152.16 151.91">
  <defs>
    <style>
      .cls-1, .cls-2 {
        stroke: #eda69d;
        stroke-miterlimit: 10;
      }

      .cls-1, .cls-3 {
        fill: #fff;
      }

      .cls-2 {
        fill: #eda69d;
      }

      .cls-3 {
        stroke-width: 0px;
      }
    </style>
  </defs>
  <circle class="cls-1" cx="75.69" cy="76.08" r="75"/>
  <circle class="cls-2" cx="75.69" cy="76.08" r="63.79"/>
  <path class="cls-3" d="m46.63,76.11l.81,9.06-.81,9.52c-.04.35-.31.61-.61.61s-.59-.26-.59-.61l-.78-9.52.78-9.06c0-.31.26-.59.59-.59s.57.28.61.59Zm2.98-6.35c-.39,0-.65.31-.7.7l-.7,14.71.7,9.52c.04.39.31.7.7.7.35,0,.65-.31.65-.7l.81-9.52-.81-14.71c0-.39-.31-.7-.65-.7Zm3.55-3.36c-.43,0-.74.31-.78.74l-.61,18.11.61,9.45c.04.43.35.74.78.74.39,0,.74-.31.74-.74l.74-9.45-.74-18.11c0-.43-.35-.74-.74-.74h0Zm-21.05,13.46c-.2,0-.31.15-.35.35l-.65,4.96.65,4.88c.04.2.15.35.35.35s.31-.15.35-.35l.78-4.88-.78-4.96c-.04-.2-.15-.35-.35-.35h0Zm3.29-3.05c-.2,0-.35.15-.35.35l-.89,8.01.89,7.82c0,.24.15.39.35.39s.35-.15.39-.35l1-7.86-1-8.01c-.04-.2-.2-.35-.39-.35Zm3.52-1.59c-.24,0-.43.2-.46.46l-.81,9.49.81,9.17c.04.24.24.43.46.43.24,0,.43-.2.43-.43l.96-9.17-.96-9.49c0-.26-.2-.46-.43-.46h0Zm3.52-.31c-.26,0-.5.2-.5.5l-.81,9.75.81,9.45c0,.31.24.5.5.5s.5-.2.54-.5l.89-9.45-.89-9.75c-.04-.31-.28-.5-.54-.5h0Zm33.63-15.45c-.15-.11-.39-.2-.59-.2-.31,0-.59.11-.78.26-.26.24-.43.59-.46.93v.11l-.46,24.62.24,4.53.24,4.42c.04.65.59,1.2,1.24,1.2s1.2-.54,1.2-1.2l.54-8.94-.54-24.73c-.06-.42-.28-.81-.63-1h0Zm-3.72,2.13c-.2-.11-.39-.2-.61-.2s-.43.08-.61.2c-.31.2-.5.54-.5.93l-.04.24-.39,22.4s0,.04.43,9.14v.04c0,.24.08.46.24.65.24.26.54.43.89.43.31,0,.59-.15.78-.35.24-.2.35-.46.35-.78l.04-.93.43-8.16-.46-22.68c-.04-.39-.24-.74-.54-.93h0Zm-15.52,3.13c-.43,0-.81.39-.81.85l-.61,19.59.61,9.36c.04.46.39.81.81.81.46,0,.81-.35.85-.81l.7-9.36-.7-19.59c-.03-.46-.38-.85-.85-.85h0Zm52.48,8.75c-1.5,0-2.94.31-4.26.85-.89-9.86-9.17-17.61-19.27-17.61-2.48,0-4.88.46-7.01,1.31-.85.31-1.09.61-1.09,1.28v34.79c0,.7.54,1.2,1.2,1.28h30.41c6.03,0,10.95-4.88,10.95-10.91.01-6.07-4.9-10.99-10.94-10.99h0Zm-41.34-8.4c-.59,0-1.04.46-1.09,1.09l-.46,19.05.46,9.14c.04.59.5,1.04,1.09,1.04s1.04-.46,1.04-1.04l.54-9.14-.54-19.05c-.04-.63-.46-1.09-1.04-1.09h0Zm-7.47-1.09c-.46,0-.89.43-.89.93l-.54,20.24.54,9.32c.04.5.43.89.89.89.5,0,.89-.39.93-.89l.61-9.32-.61-20.24c-.04-.5-.43-.93-.93-.93Zm3.72.47c-.54,0-.96.43-.96.96l-.54,19.74.54,9.25c.04.54.43.96.96.96s.96-.43.96-.96l.59-9.25-.59-19.74c0-.54-.42-.96-.96-.96h0Z"/>
</svg>